# xmcd CD database file
#
# Track frame offsets:
#	150
#	13288
#	26779
#	38350
#	49034
#	64318
#	78097
#	91673
#	101552
#	113292
#
# Disc length: 1644 seconds
#
# Revision: 0
# Processed by: cddbd v1.5.1PL2 Copyright (c) Steve Scherf et al.
# Submitted via: CDex 1.50
#
DISCID=6a066a0a
DTITLE=Mel McDaniel - Let it Roll
DYEAR=2000
DGENRE=Country
TTITLE0=Mississippi (Roll On Forever)
TTITLE1=A Little More Country
TTITLE2=Lovelight
TTITLE3=You Sneaky Thing You
TTITLE4=The Hustler
TTITLE5=Baby's Got Her Blue Jeans On
TTITLE6=Dreamin' With You
TTITLE7=Let It Roll (Let It Rock)
TTITLE8=My 'ol Four Wheel Drive
TTITLE9=I Can Never Get You Off My Mind
EXTD=YEAR: 2000
EXTT0=
EXTT1=
EXTT2=
EXTT3=
EXTT4=
EXTT5=
EXTT6=
EXTT7=
EXTT8=
EXTT9=
PLAYORDER=
